<svg xmlns="http://www.w3.org/2000/svg" width="27" height="28" viewBox="0 0 27 28" fill="none">
  <path d="M20.25 9.5C20.25 7.70979 19.5388 5.9929 18.273 4.72703C17.0071 3.46116 15.2902 2.75 13.5 2.75C11.7098 2.75 9.9929 3.46116 8.72703 4.72703C7.46116 5.9929 6.75 7.70979 6.75 9.5C6.75 17.375 3.375 19.625 3.375 19.625H23.625C23.625 19.625 20.25 17.375 20.25 9.5Z" stroke="#1E1E1E" stroke-width="2" stroke-linecap="round" stroke-linejoin="round"/>
  <path d="M15.4462 24.125C15.2484 24.466 14.9645 24.749 14.623 24.9457C14.2814 25.1425 13.8941 25.246 13.5 25.246C13.1058 25.246 12.7185 25.1425 12.377 24.9457C12.0354 24.749 11.7515 24.466 11.5537 24.125" stroke="#1E1E1E" stroke-width="2" stroke-linecap="round" stroke-linejoin="round"/>
  <circle cx="19" cy="6" r="4.5" fill="#FF5A5A" stroke="white"/>
</svg>