<svg width="229" height="180" viewBox="0 0 229 180" fill="none" xmlns="http://www.w3.org/2000/svg">
<path d="M130.688 180V0H109.309V89.2969H107.24L27.9305 0H-6.10352e-05L74.1367 81.2109L-6.10352e-05 180H25.8616L87.2399 96.3281L109.309 121.641V180H130.688Z" fill="#7C3AED"/>
<path d="M109.347 180V0H169.001C182.851 0 194.173 2.54883 202.966 7.64648C211.816 12.6856 218.368 19.5117 222.621 28.125C226.874 36.7383 229 46.3477 229 56.9531C229 67.5586 226.874 77.1973 222.621 85.8691C218.425 94.541 211.931 101.455 203.138 106.611C194.345 111.709 183.081 114.258 169.346 114.258H126.588V94.9219H168.656C178.139 94.9219 185.754 93.252 191.501 89.9121C197.248 86.5723 201.414 82.0605 204 76.377C206.644 70.6348 207.966 64.1602 207.966 56.9531C207.966 49.7461 206.644 43.3008 204 37.6172C201.414 31.9336 197.219 27.4805 191.414 24.2578C185.61 20.9766 177.909 19.3359 168.311 19.3359H130.726V180H109.347Z" fill="black"/>
</svg>
